<svg version="1.1" xmlns="http://www.w3.org/2000/svg" xmlns:xlink="http://www.w3.org/1999/xlink" x="0px" y="0px" viewBox="0 0 512 512">
<g>
	<path fill="#f25076" d="M138.386,146.964c-17.103-4.86-27.836-5.53-30.966,5.872c-1.451,5.084,1.009,19.947,31.13,28.782
		c21.967,6.43,51.641,1.734,66.452-0.558c0.223,0,0.446-0.059,0.614-0.112c0-0.446,0-0.893,0.055-1.339
		c-0.223-0.112-0.446-0.335-0.67-0.446C192.205,170.163,165.712,154.682,138.386,146.964z" />
	<path fill="#f25076" d="M373.618,146.964c-27.33,7.718-53.822,23.199-66.62,32.198c-0.223,0.111-0.502,0.334-0.726,0.446
		c0.056,0.446,0.056,0.893,0.056,1.339c0.167,0.053,0.446,0.112,0.67,0.112c14.811,2.292,44.489,6.989,66.452,0.618
		c30.121-8.894,32.581-23.757,31.13-28.841C401.394,141.434,390.717,142.104,373.618,146.964z" />
	<path fill="#f25076" d="M253.905,181.618h-18.946c-2.348,0-4.134,2.069-4.022,4.637l0.837,27.836c0.112,4.078,5.084,5.753,7.265,2.515
		l18.275-27.724C259.271,185.867,257.37,181.618,253.905,181.618z" />
	<path fill="#f25076" d="M256,0C114.614,0,0,114.618,0,256c0,141.39,114.614,256,256,256s256-114.61,256-256
		C512,114.618,397.386,0,256,0z M390.214,244.21c-26.228,4.674-56.762-1.742-76.054-7.193c-4.101-1.195-7.81-2.37-10.784-3.406
		c0.034,0.045,0.097,0.127,0.138,0.175c-0.082-0.026-0.182-0.056-0.261-0.086c1.284,1.682,3.409,4.31,6.148,7.718
		c0.446,0.61,0.949,1.228,1.566,1.846c14.03,17.427,42.844,51.206,75.879,80.002c6.512,5.716,13.177,11.269,19.954,16.46
		c-35.234,1.034-51.559,0.089-53.621-0.045c-0.015-0.007-0.086-0.015-0.09-0.018v0.011c-0.082-0.004-0.153-0.011-0.153-0.011
		s0.982,16.486,6.825,37.09c0.815,2.958,1.72,5.999,2.735,9.091c-63.627-21.51-88.084-94.817-95.683-125.819h-21.74
		c-6.357,26.131-24.796,82.22-68.507,112.11c-8.161,5.545-17.11,10.275-27.136,13.632c7.714-22.875,9.359-43.06,9.553-45.77
		c0.011-0.082,0.026-0.178,0.034-0.182c0,0-0.018,0.004-0.022,0.004c0.004-0.063,0.011-0.156,0.011-0.156s-14.19,1.034-47.165,0.242
		c-2.181-0.086-4.383-0.175-6.735-0.294c41.08-31.125,79.012-75.473,95.874-96.346c0.558-0.618,1.116-1.235,1.562-1.846
		c2.27-2.773,3.897-4.864,5.162-6.513c0.346-0.39,0.681-0.766,0.979-1.057c-0.063,0.018-0.149,0.045-0.213,0.067
		c0.045-0.06,0.123-0.157,0.164-0.216c-16.542,5.478-54.994,16.262-86.849,10.509c-36.049-6.482-48.345-26.102-43.704-56.162
		c0.112-0.73,5.869-30.076,5.869-30.076c4.581-23.526,12.072-38.948,55.441-28.558c30.236,7.271,58.458,24.65,74.498,35.881
		c0.726,0.506,1.451,1.005,2.125,1.459c0.279,0.216,0.502,0.387,0.782,0.558c4.47-5.314,11.231-8.782,18.778-8.782h40.797
		c7.491,0,14.309,3.468,18.834,8.782c0.223-0.171,0.506-0.342,0.782-0.558c0.674-0.454,1.399-0.953,2.069-1.459
		c16.095-11.23,44.322-28.61,74.498-35.881c43.369-10.39,50.916,5.031,55.497,28.558c0,0,5.757,29.346,5.869,30.076
		C438.559,218.109,426.263,237.728,390.214,244.21z" />
</g>
</svg>
