<svg version="1.1" xmlns="http://www.w3.org/2000/svg" xmlns:xlink="http://www.w3.org/1999/xlink" viewBox="0 0 19.36 135.81" x="0px" y="0px">
    <g>
        <path fill="#f25076" d="M12.9,12.92c-1.08,0-1.46.3-1.46,1.4,0,.51.06,1,.06,1.54,0,1.79-1.22,1.79-2.62,1.79-1.79,0-.45-1.89-1.58-1.89A6.77,6.77,0,0,0,5,16.49a7.51,7.51,0,0,1-2.58.69A2.35,2.35,0,0,1,.53,15.31c0-1.14,5.59-1.46,5.59-2.27A10.74,10.74,0,0,0,5,12.92c-.95,0,0,.69-1.1.69-.69,0-2.72,0-2.72-1a16.2,16.2,0,0,1,.18-2.76A2.19,2.19,0,0,1,3.55,7.74a23.27,23.27,0,0,1,2.62-.1c.26,0,1.48,0,1.56-.31C7.56,6.93,6,6.91,5.57,6.91c-1,0-1.95.1-2.93.1a4.56,4.56,0,0,1-.73,0c-1-.12-.49-1.28-.81-1.87-.16-.28-.71-.77-.71-1A16,16,0,0,1,3.51.24,1.55,1.55,0,0,1,4.18.12a2.94,2.94,0,0,1,.41,0s1.52.1,1.52.37A1.08,1.08,0,0,1,6,.87,1.66,1.66,0,0,0,6.68,1C7.33,1,8,.93,8.65.93s1.16.12,1.16.77a.75.75,0,0,0,.2.06c.41,0,.75-1.75,2-1.75a5.43,5.43,0,0,1,2.15.43c.26.26.1.41.24.55,2,.33,4.25-.61,4.25,2.3,0,.51-.53.53-.91.53s-.61,0-.93,0-.41,0-.41.26c0,1.06,1.08.32,1.44,1A7.75,7.75,0,0,1,18,7.11a8,8,0,0,1-.06,1.67C17.67,10,15.27,10,14.3,10c-.63,0-1.28,0-1.91,0-.2,0-.85,0-.85.33l.14.22a15.72,15.72,0,0,0,2.44.12c.81,0,1.62,0,2.4,0,1,0,2.21-.06,2.21,1.26,0,3.74-1.34,5.16-5.1,5.16-1.22,0-1.38-.28-1.38-1.44,0-.63.1-1.42.91-1.42.24,0,.47.06.71.06.63,0,.75-.37.75-.93,0-.39-.47-.41-.77-.41ZM4.35,3.76c-.12,0-.65.63-.71.75s.32.14.41.14c.35,0,.55-.1.55-.47C4.61,4.06,4.49,3.76,4.35,3.76Zm2.27,7c.22,0,1.1,0,1.1-.33,0-.47-.87-.39-1.16-.39s-.47,0-.69,0-.95,0-.95.45,1,.32,1.18.32ZM9.28,4.61c.14,0,.39,0,.39-.2,0-.43-.81-.81-1.18-.81-.22,0-.49,0-.49.28,0,.49.43.73.89.73ZM12.11,7c-.22,0-.57.14-.57.39s1.22.3,2.15.3c.24,0,.61-.06.67-.33-.12-.39-.51-.35-.85-.35Zm.24-2.32c.26,0,.69,0,.69-.33s-.18-.59-.47-.59-.63.55-.63.69S12.19,4.63,12.35,4.63Z"/>
        <path fill="#f25076" d="M6.86,27.11c1-.14,2.42-5.67,3-6.68a1,1,0,0,1,1.06-.61c3.09,0,1.62,1.42,2.5,2a2.55,2.55,0,0,0,1.32.3c.39,0,.77,0,1.16,0,2,0,2.38.49,2.38,2.42,0,2.17-1.77,4.27-1.77,5.81s2.17,2.86,2.17,4c0,.73-1.3,2.36-2.07,2.36-1.46,0-1.73-2.32-3-2.32C12,34.28,9.95,37,8.69,37s-1.12-1.87-2.52-1.87-2.88.61-4.35.61c-1,0-1.38-1.42-1.38-2.25s.79-.39,1.24-.71c.28-.2.22-1,.22-1.24,0-.49,0-1.87-.37-2.21-.22-.2-.28-.12-.51-.12-.75,0-.59-1.58-.59-2,0-1.18.93-.59,1.26-1.06a2.71,2.71,0,0,0,.24-1.54c0-.75-.35-.61-.93-.61-.35,0-.49-.22-.49-.55a3.29,3.29,0,0,1,.41-2c.49-.57,3.31-.63,4.1-.63.51,0,1.75-.08,2.11.31a1,1,0,0,1,.22.55,7.65,7.65,0,0,1,0,.95c0,.85-.22,1.18-1.1,1.18s-.89.91-.89,1.58c0,1.71,1.32.1,1.32,1.62Zm-1.4,2.44a3.84,3.84,0,0,0-.14,1.34c0,.37.12,1.2.59,1.2.32,0,.59-.18.93-.18.83,0,.22,1.56,1,1.56.57,0,2-1.26,2.42-1.65,1.81-1.6,3.82-4,4.14-6.5a1.33,1.33,0,0,0-1.22-.43c-1.54,0-2.64,5.1-4.27,5.1-.73,0-1.71-1.24-2.11-1.24l-.06,0a1.16,1.16,0,0,0,0,.26c0,.3-.55.22-.73.22A.43.43,0,0,0,5.46,29.55Z"/>
        <path fill="#f25076" d="M9.06,49.25c2.74,1.5,6.74,2.56,6.68,4.14a3.1,3.1,0,0,1-3,3.11c-1,0-4.77-2.8-5.55-3.35A30.73,30.73,0,0,1,2.78,49.9,2.8,2.8,0,0,1,2.15,49,2.85,2.85,0,0,1,2,47.93a2.34,2.34,0,0,1,.43-1.44C3.63,44.88,7,43.24,8.75,42.14A16.52,16.52,0,0,0,10.4,41a3.92,3.92,0,0,1,1.89-.85c.81,0,2.46,2.27,2.36,3.05-.14,1.16-3.09,2-4.22,2.64C6.64,47.61,8.12,48.72,9.06,49.25Z"/>
        <path fill="#f25076" d="M2.64,65.25a1.44,1.44,0,0,1,.91-.75,7.45,7.45,0,0,1,1.75-.12c.55,0,1.36.24,1.36.91,0,.43-.14.61-.14,1a1.32,1.32,0,0,0,.1.3,14.24,14.24,0,0,0,2.23-.49,11.14,11.14,0,0,1,2.68-.39c3.05,0,6.21.81,6.21,4.47,0,3-2.44,4.63-5,5.44a15.11,15.11,0,0,1-4.61.57c-.91,0-3.92-.08-4.25-1.14a2.71,2.71,0,0,1-.1-.79c0-1.28-.24-2,1.18-2,1.22,0,2.15.32,3.92.3,1.62,0,4.27.45,4.27-1.65,0-1-1-1.42-1.93-1.42C8.83,69.46,6.91,71,4.63,71c-.73,0-2.72-.65-2.72-1.62A18.68,18.68,0,0,1,2.64,65.25Zm12.45-1.48c0,.87-1.12,1-1.79,1a57.57,57.57,0,0,1-8-1.34,1.59,1.59,0,0,1-.57-.95c0-1.79,1-2,2.58-2,1.26,0,6.13.2,7.07.69a1.41,1.41,0,0,1,.81,1.3Z"/>
        <path fill="#f25076" d="M5.34,82.64a40.44,40.44,0,0,0-.61,5.3,25.32,25.32,0,0,0,.35,3.86,17.4,17.4,0,0,1,.45,2.84c0,1-1.06,1.08-1.83,1.08a1.77,1.77,0,0,1-1.6-.83C1.16,93.32.73,89.5.73,87.65s.14-7.51,2.76-7.51c.67,0,2,0,2,.95A10.31,10.31,0,0,1,5.34,82.64Zm2.15,9.93c.45-.87,2-1,2.7-1.26,1.26-.51,1.28-1.38,1.28-2.58,0-.55,0-1.08,0-1.63s-1.32-.61-1.77-.61-1.08.06-1.62.06c-1.26,0-1.48-.69-1.48-1.81s.75-1.44,1.77-1.44l1.16,0c1,0,1.87,0,1.87-1.26,0-.49,0-1,0-1.46,0-.24,0-.63.28-.75a1.54,1.54,0,0,1,.79-.12c1.24.22,1.3-.67,2-.67.49,0,1.87,2.09,1.87,2.58s-.93.37-.93,1.34c0,.31.37.35.61.37,1.62.18,2.48-.31,2.48,1.83,0,1.28-.67,1.34-1.73,1.34-.59,0-1.3-.14-1.3.67,0,.26,0,.49,0,.75,0,4.77-.53,6-5.16,7.74a2.29,2.29,0,0,1-.81.18A1.77,1.77,0,0,1,7.62,94.4,3,3,0,0,1,7.49,92.57Zm9.36-11.66A5.3,5.3,0,0,1,16,79.39c0-.57.85-1,1.34-1s2,2,2,2.58-1,.85-1.44.85a1,1,0,0,1-.87-.61h0l-.26-.33Z"/>
        <path fill="#f25076" d="M13.71,101c0,.79-1.34.2-1.34.69s.28.31.57.59a2.05,2.05,0,0,1,.33.65c.65,0,.63-4.08,2-4.08.39,0,1.62.14,1.85.47s0,.91.35,1a7.06,7.06,0,0,1,.93.26c.85.32.69,1.26.69,2,0,.55-.57.59-1,.59l-.63,0a1.48,1.48,0,0,0-1.4,1.56c0,.47,1.06.35,1.34.35,1.22,0,1.69.26,1.69,1.54s-1.4,1.28-2.42,1.28a5.61,5.61,0,0,1-1.93-.18.91.91,0,0,1-.37-.55c-.2-.73.12-2.38-1-2.38l-.08,0a.28.28,0,0,0-.1.22c0,.12,0,.26,0,.39,0,.57-.73.2-.73.61,0,.77,1,.16,1.38.67a2.45,2.45,0,0,1,.16,1.08,1.65,1.65,0,0,1-.06.45c-.18.61-2.25.51-2.76.53h-.39l-.28.16c0,.22,1.44.32,1.64.32,1.46,0,2.92-.06,4.37-.06.89,0,1.83.14,1.83,1.24,0,.69-.12,1.36-.12,2,0,1,.77.2.77.89a4.32,4.32,0,0,1-.31,1.69c-.95,1.06-5.89,1-7.31,1-.59,0-1.16,0-1.75,0-1.24,0-2.74-.22-2.74-1.77v-.51c0-.61.29-.39.55-.65a.49.49,0,0,0,.1-.33c0-.75,0-1.48,0-2.23,0-.41.1-1.14-.47-1.22l-.08-.3-.16-.16c-.26,0-.26.49-.26.67,0,1.71.1,3.41.1,5.12,0,.63-.14,1.63-1,1.63-.37,0-1.2,0-1.44-.31a1.12,1.12,0,0,1-.16-.55c0-.37-.14-.79-.14-1.16s-.41-.2-.55-.33c-.31-.12-.33-1.89-.33-2.23s0-.85,0-1.28a4.5,4.5,0,0,0-.08-.89l0,0c0,.67-.08,1.28-.14,2A17.74,17.74,0,0,1,2,115.68l-.18,0a3.54,3.54,0,0,1-1.54-2.44c0-1.08.43-2.11.43-3.19,0-.75-.43-.24-.61-.67A3.63,3.63,0,0,1,0,108.19c0-1.56.81-1.08.81-1.73a26.67,26.67,0,0,1,.43-5.79c.06-.16.12-.33.3-.39s.51,0,.75-.14.3-1,.47-1.32.61-.26.87-.26.69,0,1,0c1.24,0,.67,1.06,1,1.38s1-.31,1,1.14-.08,3.05-.08,4.57a.45.45,0,0,0,.16.43,2.12,2.12,0,0,0,.31-1.4c0-.47,0-.93,0-1.4s0-1.16,0-1.73c0-2,.93-2.5,2.82-2.5.49,0,1,0,1.5,0,1.1,0,2.36.16,2.36,1.54ZM3,105.89a.58.58,0,0,0,.59.63c.33,0,1.12,0,1.12-.47l0-.14c-.31,0-.75.37-1,.37s-.39-1.06-.61-1.06a1.41,1.41,0,0,0-.08.39Zm1.75-2.76c0-.32-.35-.43-.63-.43h-.3c-.3,0-.77,0-.77.41,0,.1,0,.2.16.2.33,0,.51-.24.75-.24.39,0,.63.49.75.81a1.28,1.28,0,0,0,0-.28Zm.06,10.11v-.06c0-1-.08-2.11-.08-3.15,0-.14,0-.67-.18-.67s-.16.43-.16.55a14.21,14.21,0,0,0,.31,3.43Zm5.14-11.8c-.14,0-.29.08-.29.24s0,.41.29.41H10c.2,0,.28-.18.28-.35a.3.3,0,0,0-.28-.3Zm.41,4.51-.41-.16c-.14,0-.29.08-.29.24s.06.41.33.41a.33.33,0,0,0,.37-.37Zm.12-1.67c.22,0,.47,0,.47-.28s-.16-.39-.47-.39h-.33c-.18,0-.47,0-.47.26s.18.41.49.41Zm.29,7.92c0-.24,0-.61-.33-.61s-.47.24-.47.61c0,.16,0,.31,0,.47s.06.61.37.61.47-.35.47-.69Zm2-.63c-.24,0-.37.26-.37.47v.71c0,.22,0,.51.32.51s.49-.31.49-.67V112a1.7,1.7,0,0,0-.1-.45.15.15,0,0,1-.1,0Zm2.56-.06c-.43,0-.45.59-.45.91a4.34,4.34,0,0,0,.06.71.47.47,0,0,0,.24.06c.47,0,.51-.43.51-.81v-.71a.11.11,0,0,1,0-.08.42.42,0,0,0-.24-.08Z"/>
        <path fill="#f25076" d="M13.14,123.6a.86.86,0,0,0-.81.73c0,.08,1.08,2.42,1.22,2.76a13.29,13.29,0,0,1,1.2,4.81c0,3.57-.73,3.92-4.14,3.92-.29,0-1.08,0-1.26-.3s-.1-1.08-.39-1.08c-.57,0-1.22.91-1.83.91-.43,0-1.26-1.46-1.26-1.85,0-1.12,4.75-3,4.75-4.39l-.06,0c-.81,0-3.43,3.55-5.73,3.55-1,0-.65-1.18-.95-1.26-.14.14-.1.37-.1.55,0,1,.16,1.93.16,2.92a.82.82,0,0,1-.89.89,2,2,0,0,1-1.48-.41c-1.3-1.06-1.24-6.84-1.24-8.49s.06-4.65.77-6.26a2.27,2.27,0,0,1,.93-1,6.89,6.89,0,0,1,3.45-.67,5.92,5.92,0,0,1,2.15.2c.67.47,0,1.79.81,1.79.16,0,.33,0,.33-.18,0-.39-.29-.67-.29-1.06s1.79-1,2.19-1c1.65,0,.91,2.29,2.56,2.29,1.18,0,.65-2.27,2.09-2.27.55,0,2.3.41,2.3,1.12,0,.3-.2.55-.2.85,0,.77.93.22,1.28.65a2.69,2.69,0,0,1,.33,1.58c0,.51-.1.89-.69.89a4.87,4.87,0,0,0-1.2.06c-.26.06-.31.28-.31.51s0,1,.37,1c.14,0,.37-.22.45-.33.45,0,1.44,1.52,1.44,1.93,0,.87-1.26,1.26-1.26,2,0,1.1,1.1,2.19,1.1,3.17,0,.75-1,2.8-1.87,2.8-1.54-1.54-2.68-6.15-3.07-8.31-.1-.51-.14-1-.24-1.54a5.64,5.64,0,0,0-.33-1.32Zm-8.79,5.28c0-.28-.12-1.73-.45-1.73s-.26.79-.26,1v.75c0,.18.06,1.08.28,1.08s.43-.47.43-.73Zm-.55-5.36c.33,0,.85-1.42.85-1.71s-.08-.33-.3-.33c-.59,0-.63.75-.63,1.2v.71Zm2.46,2c0,.37,1,2.11,1.36,2.11s1.44-.63,1.44-1.08c-.55,0-.91.51-1.44.51s-.91-1.77-1.22-1.77Zm.81-1.2a7.28,7.28,0,0,0,1.3-.65l-.14-.1-.63,0c-.49,0-.55.26-.73.65Zm3.53,8.83h.22c.41,0,.47-.3.47-.65a.3.3,0,0,0-.08-.22c-.18,0-.67.53-.75.69Z"/>
    </g>
</svg>
